<?xml version="1.0" standalone="no"?>
<!DOCTYPE svg PUBLIC "-//W3C//DTD SVG 20010904//EN"
 "http://www.w3.org/TR/2001/REC-SVG-20010904/DTD/svg10.dtd">
<svg version="1.0" xmlns="http://www.w3.org/2000/svg"
 width="221.000000pt" height="228.000000pt" viewBox="0 0 221.000000 228.000000"
 preserveAspectRatio="xMidYMid meet">

<g transform="translate(0.000000,228.000000) scale(0.100000,-0.100000)"
fill="#000000" stroke="none">
<path d="M1440 2264 c-55 -10 -136 -15 -230 -14 -152 2 -212 -7 -291 -44 -41
-19 -50 -20 -90 -8 -170 50 -372 62 -484 28 -170 -51 -280 -168 -321 -343 -21
-90 -21 -264 0 -378 39 -206 114 -468 179 -621 107 -251 254 -353 395 -273 33
19 34 19 62 -1 81 -58 241 -74 341 -35 14 5 17 -14 27 -142 16 -201 44 -287
117 -360 66 -64 128 -81 232 -63 237 41 333 168 363 480 5 58 10 115 10 126 0
19 7 22 78 28 102 9 155 23 225 58 151 75 202 201 107 266 -37 25 -65 27 -157
11 -35 -6 -66 -9 -68 -7 -2 2 26 65 64 140 72 144 148 357 178 498 11 53 18
128 18 200 0 151 -18 193 -121 289 -80 75 -179 129 -283 156 -92 24 -249 28
-351 9z m305 -59 c150 -31 329 -153 372 -253 22 -51 21 -213 -1 -322 -41 -193
-158 -485 -259 -643 -20 -31 -33 -58 -29 -61 24 -14 95 -17 183 -5 97 12 101
12 121 -9 19 -18 20 -24 8 -52 -16 -38 -104 -103 -173 -127 -37 -12 -83 -18
-155 -18 -95 0 -103 -2 -107 -20 -2 -11 -14 -96 -25 -188 -34 -271 -58 -332
-150 -389 -105 -65 -243 -74 -327 -22 -98 61 -132 183 -133 472 l0 122 -37
-24 c-59 -38 -108 -49 -192 -44 -80 5 -153 33 -165 63 -20 52 15 88 102 106
71 14 104 31 126 63 21 33 21 36 -9 36 -14 0 -41 6 -60 14 l-35 15 -106 -120
c-58 -66 -119 -126 -134 -134 -96 -49 -206 34 -290 218 -74 164 -153 439 -191
671 -20 116 -21 141 -11 227 19 158 65 254 159 325 127 97 352 110 595 34 60
-19 63 -19 93 -1 77 47 197 66 317 51 70 -8 97 -7 173 9 109 24 245 26 340 6z"/>
<path d="M1462 2142 c-20 -6 -17 -10 29 -36 60 -33 175 -139 223 -205 19 -25
51 -80 73 -121 l38 -75 -4 -105 c-5 -138 -5 -262 -2 -385 3 -82 -1 -110 -18
-154 -11 -30 -19 -57 -17 -59 6 -5 69 110 125 229 117 249 184 545 151 669
-24 91 -171 202 -312 235 -63 15 -243 19 -286 7z"/>
<path d="M1051 2120 c-179 -38 -295 -196 -335 -459 -5 -35 -4 -42 6 -33 25 20
138 52 185 52 54 0 120 -29 145 -64 44 -61 71 -275 49 -388 -7 -35 -33 -111
-57 -170 -24 -59 -44 -110 -44 -113 0 -3 7 -5 16 -5 36 0 86 -34 104 -71 18
-34 20 -60 20 -251 1 -326 19 -411 99 -465 66 -44 209 -22 282 44 56 51 78
146 109 468 18 185 29 226 67 250 18 11 32 23 33 26 0 4 -15 29 -33 56 -18 27
-68 118 -110 203 -93 186 -120 284 -98 363 24 83 96 127 209 127 28 0 52 3 52
6 0 20 -79 152 -124 206 -81 98 -184 166 -306 202 -67 20 -209 28 -269 16z"/>
<path d="M363 2102 c-150 -54 -216 -155 -229 -352 -7 -97 10 -216 57 -410 93
-379 213 -620 308 -620 36 0 40 3 164 144 l78 88 -26 32 c-14 17 -38 56 -52
86 -30 62 -30 69 -21 415 4 179 9 235 26 298 27 99 71 190 117 245 25 29 32
43 23 47 -73 25 -153 37 -263 41 -109 4 -138 2 -182 -14z"/>
<path d="M1603 1604 c-82 -41 -68 -150 49 -381 39 -79 75 -143 79 -143 15 0
24 75 19 155 -7 129 -6 266 4 328 l8 57 -63 0 c-38 0 -77 -7 -96 -16z m95 -17
c18 -21 -13 -57 -48 -57 -31 0 -64 25 -54 42 16 26 85 36 102 15z"/>
<path d="M814 1592 c-106 -38 -100 -24 -106 -239 -6 -206 0 -248 46 -308 30
-39 95 -80 144 -90 26 -5 33 -3 38 12 4 10 27 70 52 133 45 113 46 117 47 230
0 125 -16 217 -44 251 -25 31 -108 36 -177 11z m157 -22 c46 -25 1 -80 -55
-66 -28 7 -51 40 -42 62 6 17 68 19 97 4z"/>
<path d="M1752 869 c-24 -9 -46 -54 -37 -77 4 -12 24 -14 108 -10 103 5 163
22 212 62 19 16 19 16 -10 9 -55 -12 -178 -7 -215 9 -23 10 -43 12 -58 7z"/>
<path d="M961 820 c-49 -58 -78 -75 -158 -94 -57 -13 -57 -14 -30 -25 48 -19
155 -14 204 10 48 23 93 71 93 100 0 22 -34 59 -53 59 -8 0 -33 -23 -56 -50z"/>
</g>
</svg>
