<?xml version="1.0" standalone="no"?>
<!DOCTYPE svg PUBLIC "-//W3C//DTD SVG 20010904//EN"
 "http://www.w3.org/TR/2001/REC-SVG-20010904/DTD/svg10.dtd">
<svg version="1.0" xmlns="http://www.w3.org/2000/svg"
 width="206.000000pt" height="245.000000pt" viewBox="0 0 206.000000 245.000000"
 preserveAspectRatio="xMidYMid meet">

<g transform="translate(0.000000,245.000000) scale(0.100000,-0.100000)"
fill="#000000" stroke="none">
<path d="M984 2411 c-23 -14 -148 -208 -494 -767 -420 -680 -463 -754 -467
-799 l-5 -50 235 -365 c155 -240 247 -373 268 -388 20 -14 47 -22 71 -22 40 0
1309 370 1361 396 37 20 67 70 67 114 0 24 -119 287 -422 930 -232 492 -428
905 -436 918 -33 52 -121 68 -178 33z m138 -283 c19 -16 738 -1543 738 -1569
0 -10 -10 -25 -22 -33 -19 -12 -585 -182 -1042 -314 l-89 -26 -18 23 c-11 14
-17 32 -14 45 3 11 93 437 199 945 126 603 198 926 207 932 19 12 22 11 41 -3z"/>
</g>
</svg>
